<svg width="40" height="31" viewBox="0 0 40 31" fill="none" xmlns="http://www.w3.org/2000/svg">
<path d="M38.8281 16.3298L25.7031 29.4548C24.5312 30.6267 22.5 29.8063 22.5 28.1267V20.6267H11.875C10.8359 20.6267 10 19.7907 10 18.7517V11.2517C10 10.2126 10.8359 9.37666 11.875 9.37666H22.5V1.87666C22.5 0.204787 24.5234 -0.623338 25.7031 0.548537L38.8281 13.6735C39.5547 14.4079 39.5547 15.5954 38.8281 16.3298ZM15 29.0642V25.9392C15 25.4235 14.5781 25.0017 14.0625 25.0017H7.5C6.11719 25.0017 5 23.8845 5 22.5017V7.50166C5 6.11885 6.11719 5.00166 7.5 5.00166H14.0625C14.5781 5.00166 15 4.57979 15 4.06416V0.939162C15 0.423537 14.5781 0.00166161 14.0625 0.00166161H7.5C3.35938 0.00166161 0 3.36104 0 7.50166V22.5017C0 26.6423 3.35938 30.0017 7.5 30.0017H14.0625C14.5781 30.0017 15 29.5798 15 29.0642Z" fill="white"/>
</svg>
