<svg width="30" height="30" viewBox="0 0 30 30" fill="none" xmlns="http://www.w3.org/2000/svg">
<path d="M11.6739 23.3477C14.5211 23.3477 17.1096 22.3382 19.1286 20.6299L28.1881 29.6894C28.3952 29.8965 28.654 30 28.9387 30C29.2235 30 29.4823 29.8965 29.6894 29.6894C30.1035 29.2752 30.1035 28.6022 29.6894 28.1881L20.6299 19.1286C22.3123 17.1096 23.3477 14.4953 23.3477 11.6739C23.3477 5.22865 18.1191 0 11.6739 0C5.25453 0 0 5.25453 0 11.6739C0 18.1191 5.25453 23.3477 11.6739 23.3477ZM11.6739 2.12252C16.9543 2.12252 21.2252 6.41933 21.2252 11.6739C21.2252 16.9543 16.9543 21.2252 11.6739 21.2252C6.39344 21.2252 2.12252 16.9284 2.12252 11.6739C2.12252 6.41933 6.41933 2.12252 11.6739 2.12252Z" fill="#C4C4C4"/>
</svg>
