<svg width="30" height="35" viewBox="0 0 30 35" fill="none" xmlns="http://www.w3.org/2000/svg">
<path d="M20.6864 17.5L29.2151 7.54986C30.2616 6.32883 30.2616 4.34915 29.2151 3.12713L27.3196 0.915767C26.273 -0.305256 24.5761 -0.305256 23.5287 0.915767L15 10.8659L6.47131 0.915767C5.42472 -0.305256 3.72784 -0.305256 2.6804 0.915767L0.784943 3.12713C-0.261648 4.34815 -0.261648 6.32784 0.784943 7.54986L9.31364 17.5L0.784943 27.4501C-0.261648 28.6712 -0.261648 30.6509 0.784943 31.8729L2.6804 34.0842C3.72699 35.3053 5.42472 35.3053 6.47131 34.0842L15 24.1341L23.5287 34.0842C24.5753 35.3053 26.273 35.3053 27.3196 34.0842L29.2151 31.8729C30.2616 30.6518 30.2616 28.6722 29.2151 27.4501L20.6864 17.5Z" fill="black"/>
</svg>
